<svg width="31.000000" height="22.000000" viewBox="0 0 31 22" fill="none" xmlns="http://www.w3.org/2000/svg" xmlns:xlink="http://www.w3.org/1999/xlink">
	<defs/>
	<path id="Иконка Пункт" d="M30.31 0.67C30.75 1.11 31 1.69 31 2.31C31 2.92 30.75 3.51 30.31 3.94L12.88 21.27C12.65 21.5 12.37 21.68 12.07 21.81C11.77 21.93 11.45 22 11.12 22C10.8 22 10.47 21.93 10.17 21.81C9.87 21.68 9.6 21.5 9.37 21.27L0.71 12.66C0.48 12.45 0.31 12.2 0.18 11.91C0.06 11.63 0 11.33 0 11.02C-0.01 10.71 0.05 10.41 0.17 10.12C0.29 9.84 0.46 9.58 0.68 9.37C0.89 9.15 1.15 8.98 1.44 8.86C1.73 8.74 2.03 8.69 2.34 8.69C2.65 8.69 2.96 8.75 3.24 8.88C3.52 9 3.78 9.17 3.99 9.39L11.12 16.48L27.02 0.67C27.24 0.46 27.5 0.29 27.78 0.17C28.06 0.05 28.36 0 28.67 0C28.97 0 29.28 0.05 29.56 0.17C29.84 0.29 30.1 0.46 30.31 0.67Z" fill="#48547C" fill-opacity="1.000000" fill-rule="evenodd"/>
</svg>
