<svg width="32" height="32" viewBox="0 0 32 32" fill="none" xmlns="http://www.w3.org/2000/svg">
<rect width="32" height="32" rx="16" fill="#8B9DD8"/>
<path fill-rule="evenodd" clip-rule="evenodd" d="M16 27.375C17.9969 27.3779 19.9591 26.8527 21.6875 25.8525V22.125C21.6875 21.0807 21.2727 20.0792 20.5342 19.3408C19.7958 18.6023 18.7943 18.1875 17.75 18.1875H14.25C13.2057 18.1875 12.2042 18.6023 11.4658 19.3408C10.7273 20.0792 10.3125 21.0807 10.3125 22.125V25.8525C12.0409 26.8527 14.0031 27.3779 16 27.375ZM24.3125 22.125V23.7648C25.8257 22.1448 26.8326 20.118 27.2095 17.9334C27.5863 15.7489 27.3166 13.5019 26.4335 11.4686C25.5504 9.43529 24.0925 7.70432 22.2389 6.48848C20.3853 5.27263 18.2168 4.6249 16 4.6249C13.7832 4.6249 11.6147 5.27263 9.76113 6.48848C7.90752 7.70432 6.44957 9.43529 5.5665 11.4686C4.68343 13.5019 4.41372 15.7489 4.79054 17.9334C5.16735 20.118 6.17427 22.1448 7.6875 23.7648V22.125C7.68698 20.7719 8.10472 19.4517 8.88352 18.3453C9.66231 17.2388 10.7641 16.4001 12.038 15.944C11.3772 15.1839 10.9489 14.2498 10.8044 13.253C10.6598 12.2563 10.805 11.239 11.2226 10.3224C11.6403 9.40593 12.3127 8.6289 13.1598 8.08402C14.0069 7.53915 14.9928 7.24943 16 7.24943C17.0072 7.24943 17.9931 7.53915 18.8402 8.08402C19.6873 8.6289 20.3597 9.40593 20.7774 10.3224C21.195 11.239 21.3402 12.2563 21.1956 13.253C21.0511 14.2498 20.6228 15.1839 19.962 15.944C21.2359 16.4001 22.3377 17.2388 23.1165 18.3453C23.8953 19.4517 24.313 20.7719 24.3125 22.125ZM16 30C19.713 30 23.274 28.525 25.8995 25.8995C28.525 23.274 30 19.713 30 16C30 12.287 28.525 8.72601 25.8995 6.10051C23.274 3.475 19.713 2 16 2C12.287 2 8.72601 3.475 6.10051 6.10051C3.475 8.72601 2 12.287 2 16C2 19.713 3.475 23.274 6.10051 25.8995C8.72601 28.525 12.287 30 16 30ZM18.625 12.5C18.625 13.1962 18.3484 13.8639 17.8562 14.3562C17.3639 14.8484 16.6962 15.125 16 15.125C15.3038 15.125 14.6361 14.8484 14.1438 14.3562C13.6516 13.8639 13.375 13.1962 13.375 12.5C13.375 11.8038 13.6516 11.1361 14.1438 10.6438C14.6361 10.1516 15.3038 9.875 16 9.875C16.6962 9.875 17.3639 10.1516 17.8562 10.6438C18.3484 11.1361 18.625 11.8038 18.625 12.5Z" fill="#48547C"/>
</svg>
