<svg width="181" height="152" viewBox="0 0 181 152" fill="none" xmlns="http://www.w3.org/2000/svg">
<path fill-rule="evenodd" clip-rule="evenodd" d="M122.812 47.1715C122.812 63.6453 109.457 77 92.983 77H39.9192C35.9937 77 32.8115 73.8178 32.8115 69.8924C32.8115 65.9669 29.6293 62.7847 25.7039 62.7847H15.9085C7.1754 62.7847 0.000274658 55.7051 0.000274658 46.972C8.39233e-05 46.9401 -7.62939e-06 46.9081 -7.62939e-06 46.8762V19.0362C-7.62939e-06 19.0043 8.39233e-05 18.9723 0.000274658 18.9404C0.000274658 10.2073 7.1754 3.12769 15.9085 3.12769H32.7477C32.7829 3.12769 32.8115 3.09911 32.8115 3.06384C32.8115 3.02858 32.8401 3 32.8754 3H92.983C109.457 3 122.812 16.3547 122.812 32.8285V47.1715Z" fill="#48547C"/>
<rect x="177.677" y="148" width="145" height="145" rx="31.6984" transform="rotate(180 177.677 148)" fill="#48547C"/>
<rect x="174.677" y="145" width="139" height="139" rx="29.5123" transform="rotate(180 174.677 145)" fill="#EBF7FF"/>
<mask id="mask0_27_231" style="mask-type:alpha" maskUnits="userSpaceOnUse" x="29" y="0" width="152" height="152">
<path fill-rule="evenodd" clip-rule="evenodd" d="M105 137.75C115.84 137.766 126.492 134.914 135.875 129.485V109.25C135.875 103.581 133.623 98.1442 129.614 94.1356C125.606 90.127 120.169 87.875 114.5 87.875H95.5C89.831 87.875 84.3942 90.127 80.3856 94.1356C76.377 98.1442 74.125 103.581 74.125 109.25V129.485C83.5078 134.914 94.1596 137.766 105 137.75ZM150.125 109.25V118.152C158.34 109.357 163.806 98.3547 165.851 86.4959C167.897 74.637 166.433 62.4389 161.639 51.4009C156.845 40.363 148.931 30.9663 138.868 24.366C128.806 17.7657 117.034 14.2494 105 14.2494C92.966 14.2494 81.1943 17.7657 71.1318 24.366C61.0694 30.9663 53.1548 40.363 48.361 51.4009C43.5672 62.4389 42.1031 74.637 44.1486 86.4959C46.1942 98.3547 51.6603 109.357 59.875 118.152V109.25C59.8722 101.905 62.1399 94.7381 66.3677 88.7314C70.5954 82.7248 76.5765 78.1719 83.492 75.696C79.9047 71.5698 77.58 66.4988 76.7951 61.0878C76.0103 55.6769 76.7985 50.1544 79.0657 45.179C81.3329 40.2036 84.9834 35.9854 89.5818 33.0276C94.1802 30.0697 99.5324 28.4969 105 28.4969C110.468 28.4969 115.82 30.0697 120.418 33.0276C125.017 35.9854 128.667 40.2036 130.934 45.179C133.201 50.1544 133.99 55.6769 133.205 61.0878C132.42 66.4988 130.095 71.5698 126.508 75.696C133.423 78.1719 139.405 82.7248 143.632 88.7314C147.86 94.7381 150.128 101.905 150.125 109.25ZM105 152C125.156 152 144.487 143.993 158.74 129.74C172.993 115.487 181 96.1565 181 76C181 55.8435 172.993 36.5126 158.74 22.2599C144.487 8.00712 125.156 0 105 0C84.8435 0 65.5126 8.00712 51.2599 22.2599C37.0071 36.5126 29 55.8435 29 76C29 96.1565 37.0071 115.487 51.2599 129.74C65.5126 143.993 84.8435 152 105 152ZM119.25 57C119.25 60.7793 117.749 64.4039 115.076 67.0763C112.404 69.7487 108.779 71.25 105 71.25C101.221 71.25 97.5961 69.7487 94.9237 67.0763C92.2513 64.4039 90.75 60.7793 90.75 57C90.75 53.2207 92.2513 49.5961 94.9237 46.9237C97.5961 44.2513 101.221 42.75 105 42.75C108.779 42.75 112.404 44.2513 115.076 46.9237C117.749 49.5961 119.25 53.2207 119.25 57Z" fill="#48547C"/>
</mask>
<g mask="url(#mask0_27_231)">
<rect x="59.3999" y="26.5999" width="91.2" height="102.6" rx="19" fill="#48547C"/>
</g>
<path d="M20.8803 45.8514L10.9375 32.9257L20.8803 20" stroke="#CFE7F8" stroke-width="2.98285" stroke-linecap="round" stroke-linejoin="round"/>
</svg>
